<svg width="125" height="30" viewBox="0 0 125 30" fill="none" xmlns="http://www.w3.org/2000/svg">
<path fill-rule="evenodd" clip-rule="evenodd" d="M55.0207 9.70597C54.2949 9.70597 53.7477 9.19125 53.7477 8.50869V8.16301C53.7477 7.46893 54.283 6.96515 55.0207 6.96515C55.7857 6.96515 56.32 7.45773 56.32 8.16301V8.50869C56.32 9.19125 55.7614 9.70597 55.0207 9.70597ZM107.815 12.2141C107.816 12.2312 107.915 13.9296 108.756 13.9296C108.85 13.9296 108.901 13.8557 108.901 13.7215C108.901 13.1462 108.515 12.6108 107.815 12.2141ZM104.717 10.6747C104.45 10.6747 103.579 10.7612 103.579 11.8749C103.579 12.7435 104.349 14.0289 105.639 15.3132C106.805 16.4741 108.061 17.2848 108.693 17.2848C109.251 17.2761 109.977 16.3197 110.589 14.7888C111.212 13.2298 111.572 11.4767 111.552 10.0994C111.536 8.89854 111.08 8.12261 110.39 8.12261L110.374 8.12275C109.583 8.13446 109.022 8.65032 108.689 9.08104C108.247 9.65394 107.966 10.4061 107.917 10.8531C108.795 11.616 109.732 12.5274 109.732 13.6836C109.732 14.3803 108.785 15.1974 108.299 15.1974C107.899 15.1974 107.344 14.8766 106.969 13.3479C106.743 12.4296 106.69 11.5075 106.69 11.4983C106.677 11.4906 105.299 10.6747 104.717 10.6747H104.717ZM109.334 18.5001C108.364 18.5001 106.36 17.53 104.674 16.2436C103.729 15.5231 102.937 14.7446 102.382 13.9923C101.733 13.1117 101.404 12.2726 101.404 11.4983C101.404 10.9044 101.581 8.96674 103.86 8.96674C104.633 8.96674 105.822 9.40673 106.889 10.0877C106.989 9.49196 107.221 8.86151 107.556 8.26493C107.925 7.61669 108.388 7.05937 108.896 6.6532C109.444 6.21511 110.017 5.97948 110.554 5.97179C110.57 5.97155 110.585 5.97142 110.6 5.97142C111.253 5.97142 112.176 6.20624 112.864 7.32496C113.294 8.02405 113.559 8.97644 113.571 9.87258C113.629 13.8123 110.814 18.4776 109.334 18.5001ZM112.034 20.0804L112.034 20.081C111.104 20.2149 111.081 21.7997 111.08 21.867L112.935 21.2154C112.934 21.2046 112.864 20.081 112.034 20.081L112.034 20.0804ZM111.554 26.2551C110.131 26.2551 109.175 24.9967 109.175 23.1238C109.175 21.2661 109.599 19.9191 110.434 19.1202C111.136 18.4486 111.895 18.3964 112.11 18.3964C113.122 18.3964 113.736 18.9677 114.073 19.447C114.463 20.0027 114.697 20.7422 114.697 21.4252C114.697 21.9527 114.558 22.1982 113.781 22.5251L111.125 23.4892C111.125 23.8842 111.186 24.1397 111.318 24.2928C111.428 24.4212 111.589 24.4784 111.842 24.4784C112.363 24.4784 112.868 24.0928 113.313 23.7525C113.642 23.5005 113.927 23.2829 114.146 23.2829C114.425 23.2829 114.698 23.7605 114.698 24.0378C114.698 24.5145 114.331 25.0675 113.716 25.517C113.075 25.9861 112.286 26.2551 111.554 26.2551ZM5.14235 2.6342C4.88545 2.6342 4.64201 2.74388 4.45689 2.94306C4.05262 3.37766 3.54058 4.49846 3.76032 9.19353C3.84316 10.9473 4.18366 13.5789 4.75766 15.5046L5.1552 16.8365L5.55216 15.5046C6.12614 13.5789 6.46666 10.9473 6.54951 9.19353C6.76811 4.51705 6.24601 3.38856 5.83428 2.94656C5.6467 2.74513 5.40096 2.6342 5.14235 2.6342ZM1.10953 26.4224C0.814431 26.4224 0.53867 26.3092 0.333032 26.1035C0.122691 25.8943 0.00427479 25.6134 -0.000378713 25.3125C-0.00446874 25.0117 0.106069 24.7275 0.310891 24.5122L0.437391 24.3787L0.439674 24.3763C1.73755 23.0085 3.07964 21.5942 3.98551 19.5674L4.05955 19.4013L3.99251 19.2317C2.57658 15.6237 1.69168 11.9736 1.56472 9.21742C1.43299 6.36163 1.6096 2.59915 3.19918 0.892423C3.74222 0.308598 4.41847 0 5.15482 0C5.89079 0 6.56683 0.308598 7.10987 0.892423C8.70049 2.59967 8.87664 6.36191 8.74433 9.21742C8.61672 11.9749 7.73162 15.6249 6.31597 19.2317L6.24952 19.4013L6.32354 19.5674C7.2299 21.5964 8.57367 23.0113 9.87318 24.3796L9.99874 24.5122C10.4207 24.9575 10.4105 25.6714 9.976 26.1035C9.7768 26.3019 9.50524 26.4112 9.21132 26.4112C8.9089 26.4112 8.6212 26.2908 8.42198 26.0808C7.38578 24.9887 6.40638 23.6564 5.51097 22.1211L5.15482 21.5097L4.79807 22.1211C3.90327 23.656 2.92367 24.9882 1.88648 26.0808C1.68252 26.2964 1.40821 26.4177 1.11413 26.4224L1.10953 26.4224ZM48.7848 26.4748C48.1583 26.4748 47.6674 25.9722 47.6674 25.3306V18.197C47.6674 15.6258 46.4362 14.1511 44.2895 14.1511C42.1442 14.1511 40.7029 15.8199 40.7029 18.3037V25.3306C40.7029 25.9722 40.2123 26.4748 39.5861 26.4748C38.9739 26.4748 38.4943 25.9722 38.4943 25.3306V18.144C38.4943 15.6438 37.2411 14.1511 35.142 14.1511C33.0341 14.1511 31.5041 15.9311 31.5041 18.3835V25.3306C31.5041 25.9829 31.035 26.4748 30.4129 26.4748C29.786 26.4748 29.2949 25.9722 29.2949 25.3306V13.3793C29.2949 12.7594 29.7949 12.2357 30.3867 12.2357C31.0133 12.2357 31.5041 12.738 31.5041 13.3793V14.4484C32.2692 13.3433 33.4433 12.0754 35.7395 12.0754C37.663 12.0754 39.1994 13.0117 40.0658 14.7118C41.2441 12.9377 42.7873 12.0754 44.7826 12.0754C47.9244 12.0754 49.876 14.2374 49.876 17.7179V25.3306C49.876 25.9722 49.3967 26.4748 48.7848 26.4748L48.7848 26.4748ZM55.047 26.4749C54.4204 26.4749 53.9296 25.9723 53.9296 25.3306V13.3794C53.9296 12.7595 54.4293 12.2357 55.0208 12.2357C55.6474 12.2357 56.1382 12.7381 56.1382 13.3794V25.3306C56.1382 25.983 55.6691 26.4749 55.047 26.4749H55.047ZM89.7285 22.5239C89.3735 22.5239 88.832 22.6013 88.3771 22.8183C87.8159 23.0861 87.5193 23.5077 87.5193 24.0377C87.5193 24.2713 87.5758 24.8147 88.0993 24.8147C88.6802 24.8147 89.7787 24.3362 89.7787 22.5251C89.7784 22.5251 89.7782 22.5251 89.778 22.5251C89.7704 22.5251 89.7627 22.5248 89.7549 22.5246C89.7456 22.5242 89.737 22.5239 89.7285 22.5239H89.7285ZM91.1799 26.5238C90.2864 26.5238 89.6912 26.3372 89.6912 25.4262C89.6912 25.3245 89.708 25.072 89.7598 24.9411C89.403 25.8239 88.5048 26.4644 87.6254 26.4644C86.2879 26.4644 85.4599 25.2223 85.4599 24.0716C85.4599 21.2096 89.3084 21.127 89.7472 21.127C89.7758 21.127 89.7909 21.1273 89.7909 21.1273C89.7908 21.125 89.8002 20.9077 89.8002 20.8096C89.802 20.6326 89.7474 20.4868 89.6378 20.3761C89.4604 20.1969 89.1383 20.1061 88.6802 20.1061L88.6729 20.1061C88.6512 20.1061 88.498 20.1107 88.4455 20.1131C88.4369 20.1137 88.4283 20.114 88.4198 20.114C88.3108 20.114 88.2106 20.0665 88.1221 19.9728C87.9524 19.7931 87.8726 19.4917 87.8836 19.2994C87.9183 18.7025 88.3527 18.3999 89.1748 18.3999C90.2423 18.3999 91.5287 18.8703 91.5944 21.111V25.9205C91.5944 26.3118 91.5283 26.5238 91.1799 26.5238ZM116.954 26.5326C115.852 26.5326 115.461 26.1437 115.461 25.0467V19.6286C115.461 18.8061 116.226 18.486 116.708 18.4774L116.719 18.4774C117.099 18.4774 117.308 18.6614 117.308 18.9956C117.308 18.9978 117.314 19.2385 117.314 19.6187C117.942 18.9448 118.508 18.6033 118.998 18.6033C119.602 18.6033 119.668 19.4149 119.668 19.7639C119.668 19.9677 119.578 20.2168 119.327 20.3048C118.647 20.5516 117.507 21.0763 117.507 21.818C117.507 21.8203 117.508 21.9376 117.508 22.1323C117.513 24.5495 117.516 25.9795 117.516 26.1589C117.516 26.4763 116.959 26.532 116.954 26.5325L116.954 26.5326ZM66.2248 21.6275C65.785 21.6275 65.3726 21.8104 65.0637 22.1424C64.7423 22.4877 64.5653 22.9678 64.5653 23.494V23.5155C64.5653 24.0415 64.7423 24.5214 65.0637 24.8669C65.3727 25.1991 65.785 25.382 66.2248 25.382C66.6703 25.382 67.0787 25.2036 67.3749 24.8796C67.688 24.5371 67.8534 24.0654 67.8534 23.5155V23.494C67.8534 22.9615 67.6821 22.48 67.371 22.1382C67.0712 21.8089 66.6641 21.6275 66.2248 21.6275V21.6275ZM66.5376 26.5413C65.7407 26.5413 65.106 26.2053 64.5971 25.5142V25.8127C64.5971 26.1781 64.3022 26.4754 63.9396 26.4754C63.5829 26.4754 63.2926 26.1781 63.2926 25.8127V18.9659C63.2926 18.5881 63.5708 18.3031 63.9396 18.3031C64.3084 18.3031 64.5971 18.5943 64.5971 18.9659V21.561C65.1061 20.8254 65.7413 20.468 66.5376 20.468C67.2271 20.468 67.8742 20.7465 68.3597 21.252C68.8955 21.8099 69.1788 22.5852 69.1788 23.4939V23.5155C69.1788 24.4211 68.8968 25.1949 68.3634 25.7532C67.8778 26.2614 67.2294 26.5413 66.5376 26.5413ZM18.5899 26.6346C15.4013 26.6346 13.3409 24.4301 13.3409 21.0183V13.3794C13.3409 12.7274 13.8098 12.2357 14.4315 12.2357C15.0474 12.2357 15.5484 12.7488 15.5484 13.3794V20.5129C15.5484 23.0464 16.899 24.5589 19.1612 24.5589C21.4716 24.5589 23.0853 22.8295 23.0853 20.3532V13.3794C23.0853 12.7274 23.5544 12.2357 24.1765 12.2357C24.788 12.2357 25.2671 12.7381 25.2671 13.3794V25.3306C25.2671 25.9723 24.788 26.4749 24.1765 26.4749C23.5646 26.4749 23.0853 25.9723 23.0853 25.3306V24.1957C21.9795 25.8369 20.5086 26.6346 18.5899 26.6346ZM93.9979 26.7101C93.9856 26.7101 93.9731 26.71 93.9603 26.7097C92.7991 26.678 92.3853 25.7241 92.3853 24.8421V19.6304C92.3853 18.7873 93.2312 18.4243 93.684 18.4173C94.0888 18.4173 94.2465 18.6636 94.2465 19.2958V19.7137C94.7562 19.0321 95.5336 18.7904 96.0442 18.7904C97.1342 18.7904 97.7869 19.4095 97.9596 19.8256C98.6408 18.9134 99.2961 18.7904 99.847 18.7904C101.862 18.7904 102.163 20.4996 102.163 21.5184V26.0044C102.163 26.3723 101.957 26.4316 101.465 26.4316C100.216 26.4316 100.048 25.5229 100.048 24.634L100.046 21.7917C100.046 21.14 99.8122 20.8096 99.3504 20.8096C98.9609 20.8096 98.3076 20.9456 98.3076 21.8564V25.5404C98.3076 25.9646 97.9402 26.1151 97.6256 26.1151C96.4925 26.1151 96.2546 25.2653 96.2546 24.5524V21.832C96.2546 21.1249 96.0167 20.8096 95.4834 20.8096C94.8996 20.8096 94.4919 21.2707 94.4919 21.9311C94.4919 22.0277 94.4948 23.331 94.4971 24.3782L94.4974 24.4952C94.4994 25.4061 94.5012 26.2224 94.5012 26.2784C94.5012 26.585 94.3554 26.7101 93.9979 26.7101H93.9979ZM122.195 27.0613C120.509 27.0613 119.141 25.8677 119.141 25.0888C119.141 24.5395 119.529 23.9585 119.895 23.9585C120.109 23.9585 120.325 24.1747 120.574 24.4251C120.941 24.794 121.398 25.2531 122.07 25.2531C122.391 25.2531 122.819 25.1946 122.819 24.6889C122.819 24.3079 122.411 23.9696 121.895 23.5412C121.059 22.8485 120.02 21.9863 120.071 20.4424C120.097 19.6888 120.382 19.1158 120.918 18.7396C121.465 18.3553 122.099 18.2979 122.428 18.2979C123.004 18.2979 123.64 18.5289 124.131 18.9157C124.691 19.3577 125 19.9545 125 20.5963C125 21.0439 124.283 21.2375 123.918 21.2375C123.571 21.2375 123.444 20.9739 123.309 20.6948C123.153 20.3707 122.991 20.0356 122.481 20.0356C122.094 20.0356 121.921 20.3187 121.921 20.5992C121.921 21.0637 122.42 21.4973 122.997 21.9995C123.79 22.6897 124.778 23.5488 124.778 24.8189C124.778 25.4915 124.506 26.0644 123.993 26.4758C123.521 26.8534 122.883 27.0613 122.195 27.0613V27.0613ZM84.1746 14.7736C83.0096 14.7736 82.3939 15.905 82.3939 18.0454C82.3939 18.7169 82.4428 19.4601 82.5355 20.1946C84.6211 19.7448 85.724 18.5673 85.724 16.7887C85.724 15.303 84.9236 14.7736 84.1746 14.7736V14.7736ZM82.3874 27.4354C81.2843 27.4354 81.0783 26.9237 80.8975 25.8377C80.7021 24.6551 80.2336 20.6811 80.2336 17.8641C80.2336 16.0702 80.6566 14.7055 81.4908 13.8079C82.1913 13.0543 83.1726 12.6559 84.3285 12.6559C85.5212 12.6559 86.4387 13.0958 87.0555 13.9635C87.714 14.8898 87.7851 15.971 87.7851 16.3929C87.7851 18.4844 87.0539 20.0602 85.6119 21.0764C84.4685 21.8823 83.2247 22.0865 82.7565 22.1634L82.6987 22.1729L83.2839 26.951C83.2839 27.3655 83.0073 27.4354 82.3874 27.4354H82.3874ZM71.5082 28.2201C71.1563 28.2201 70.8855 28.1704 70.6023 28.054C70.479 28.0122 70.192 27.8749 70.192 27.502C70.192 27.1876 70.4193 26.9505 70.7207 26.9505C70.8302 26.9505 70.8952 26.9728 70.9579 26.9943C71.0999 27.0356 71.2226 27.0712 71.4102 27.0712C71.7943 27.0712 71.9985 26.9153 72.2193 26.4533L72.2619 26.3321L70.1495 21.4952C70.1048 21.3928 70.0737 21.261 70.0737 21.1746C70.0737 20.803 70.3518 20.5229 70.7207 20.5229C71.021 20.5229 71.2231 20.6842 71.3566 21.0306L72.8873 24.9075L74.3108 21.0306C74.4421 20.6937 74.6524 20.5229 74.9357 20.5229C75.2809 20.5229 75.5617 20.8053 75.5617 21.1524C75.5617 21.2662 75.5281 21.4095 75.5069 21.473L73.4271 26.5862C72.9419 27.7773 72.4219 28.2201 71.5082 28.2201ZM105.764 20.1417C105.733 20.1417 105.7 20.143 105.668 20.1456C104.84 20.2164 104.674 20.8041 104.674 21.7294V24.2662C106.109 24.167 106.9 23.1307 106.9 21.3476C106.9 20.9934 106.782 20.6882 106.559 20.465C106.35 20.2565 106.068 20.1417 105.764 20.1417ZM103.964 29.145C103.074 29.145 102.895 28.684 102.895 27.9402V21.7591C102.895 20.4773 103.132 19.5766 103.619 19.0055C104.047 18.5028 104.675 18.2564 105.539 18.2523C108.003 18.2523 108.661 20.1265 108.661 21.2339C108.661 22.9901 108.08 24.3079 106.933 25.1506C106.027 25.8169 105.024 25.979 104.695 26.0323L104.666 26.037V28.7627C104.666 29.0898 104.449 29.145 103.964 29.145H103.964Z" fill="white"/>
</svg>
